<?xml version="1.0" standalone="no"?>
<!DOCTYPE svg PUBLIC "-//W3C//DTD SVG 20010904//EN"
 "http://www.w3.org/TR/2001/REC-SVG-20010904/DTD/svg10.dtd">
<svg version="1.0" xmlns="http://www.w3.org/2000/svg"
 width="1000.000000pt" height="1000.000000pt" viewBox="0 0 1000.000000 1000.000000"
 preserveAspectRatio="xMidYMid meet">

<g transform="translate(0.000000,1000.000000) scale(0.100000,-0.100000)"
fill="#000000" stroke="none">
<path d="M2825 7400 c-11 -5 -70 -9 -130 -9 -61 -1 -115 -5 -120 -10 -6 -5
-50 -12 -100 -14 -131 -7 -251 -24 -288 -41 -48 -22 -80 -30 -104 -27 -30 3
-154 -39 -175 -61 -18 -17 -77 -38 -110 -38 -9 0 -29 -11 -45 -24 -15 -12 -34
-21 -41 -19 -17 6 -99 -43 -112 -67 -6 -11 -17 -20 -24 -20 -8 0 -19 -6 -26
-14 -6 -8 -23 -16 -37 -18 -14 -2 -31 -12 -37 -22 -18 -31 -42 -54 -68 -61
-35 -11 -274 -256 -282 -291 -4 -15 -35 -55 -70 -89 -63 -61 -96 -112 -96
-148 0 -12 -20 -38 -46 -62 -35 -30 -47 -48 -47 -68 0 -17 -9 -39 -23 -52 -13
-13 -26 -36 -30 -52 -4 -15 -12 -35 -19 -43 -7 -8 -16 -26 -20 -40 -4 -14 -16
-35 -26 -48 -10 -13 -21 -43 -25 -67 -3 -24 -13 -46 -21 -49 -19 -8 -66 -115
-60 -138 3 -10 -4 -29 -15 -43 -11 -15 -18 -37 -17 -53 2 -15 -1 -34 -6 -42
-18 -29 -37 -85 -40 -121 -2 -20 -11 -54 -20 -75 -10 -25 -14 -51 -10 -72 5
-25 2 -37 -9 -45 -9 -7 -18 -28 -21 -47 -13 -90 -14 -113 -5 -129 6 -11 6 -21
0 -27 -16 -16 -23 -104 -10 -119 8 -10 8 -19 0 -35 -6 -12 -9 -28 -6 -35 3 -8
0 -39 -7 -70 -9 -43 -9 -60 1 -75 17 -28 15 -46 -13 -96 -21 -37 -25 -57 -24
-122 0 -42 -2 -93 -6 -112 -3 -20 -1 -48 6 -65 6 -17 13 -72 15 -122 2 -58 9
-104 19 -122 8 -17 20 -54 26 -83 6 -29 21 -64 31 -79 11 -15 22 -42 24 -61 2
-18 13 -45 23 -59 11 -15 26 -42 35 -62 8 -20 37 -58 65 -86 28 -28 51 -57 51
-64 0 -18 21 -37 42 -37 11 0 23 -13 31 -32 8 -18 21 -39 30 -47 15 -12 9 -22
-56 -96 -71 -83 -72 -83 -130 -90 -31 -4 -60 -11 -63 -16 -3 -5 -17 -9 -32 -9
-15 0 -45 -11 -67 -25 -22 -13 -50 -25 -62 -25 -12 0 -26 -8 -31 -17 -12 -23
-13 -161 -1 -169 5 -3 21 -28 34 -55 14 -27 30 -49 35 -49 6 0 14 -8 17 -17
10 -27 84 -97 123 -117 19 -10 46 -24 60 -32 14 -7 37 -14 51 -14 15 0 37 -8
50 -19 33 -25 89 -37 284 -59 68 -7 92 -7 165 1 95 10 130 20 151 43 16 17 33
24 60 24 21 0 41 5 44 10 4 6 22 17 41 25 68 28 219 165 229 208 6 24 12 27
47 27 25 0 50 -8 65 -20 14 -11 38 -20 53 -20 15 0 41 -7 56 -15 16 -8 46 -15
67 -15 21 0 51 -7 66 -15 27 -13 117 -25 200 -26 19 0 45 -8 57 -18 17 -13 43
-19 96 -20 39 -1 78 -7 85 -13 12 -10 119 -22 176 -20 92 4 206 -7 236 -22 28
-15 117 -19 251 -13 56 2 80 -1 93 -12 14 -12 24 -13 50 -4 20 7 50 9 80 4 76
-13 607 -3 767 14 59 6 85 6 140 2 19 -2 46 1 60 6 14 5 72 10 130 12 58 2
119 7 136 11 26 5 37 1 63 -25 17 -17 40 -31 49 -31 22 0 70 -35 133 -95 56
-54 167 -107 229 -110 49 -2 70 -8 115 -33 41 -23 265 -27 327 -7 24 8 70 19
103 24 33 5 69 12 80 14 11 3 23 6 26 6 3 1 26 16 50 34 24 19 60 37 80 41 20
3 44 15 54 26 10 11 22 20 27 20 14 0 85 55 111 86 13 16 27 45 31 65 5 27 13
38 29 42 97 25 208 49 239 52 20 2 46 9 57 14 11 6 32 11 47 11 15 0 35 6 43
14 21 18 85 36 110 29 11 -3 46 5 78 16 33 12 69 21 80 21 11 0 26 7 33 15 7
8 22 15 35 15 12 0 30 9 40 20 11 12 29 19 49 18 37 -1 75 10 96 27 8 7 26 16
40 20 41 12 150 66 150 75 0 11 85 60 104 60 41 0 196 98 196 124 0 8 16 17
38 21 45 8 97 42 111 72 6 13 18 23 28 23 9 0 30 15 47 32 17 18 51 49 76 68
52 41 100 91 100 103 0 5 22 31 50 58 27 26 51 58 54 71 3 13 7 35 11 51 3 15
12 27 21 27 27 0 94 89 94 125 0 7 13 30 29 51 37 52 65 113 63 138 0 11 8 26
18 33 11 8 20 20 20 27 0 8 6 19 14 25 8 6 17 28 20 49 4 20 9 53 13 72 3 19
14 41 23 47 10 7 20 30 23 50 8 56 17 95 28 118 5 11 8 60 7 108 l-3 88 35 -8
c19 -4 82 -8 140 -8 58 0 110 -3 116 -7 12 -8 113 13 212 43 34 10 68 19 76
19 7 0 21 9 31 20 10 11 24 20 31 20 42 0 224 130 224 160 0 4 11 11 25 14 14
4 25 11 25 16 0 5 13 16 30 25 16 8 37 30 46 48 9 17 30 48 45 67 16 19 29 39
29 45 0 5 17 26 36 45 20 19 42 47 49 61 8 14 21 31 29 38 9 8 16 26 16 41 0
30 -50 110 -86 139 -13 10 -24 24 -24 29 0 14 -84 72 -104 72 -9 0 -25 9 -36
20 -24 24 -113 70 -136 70 -10 0 -31 11 -48 24 -38 28 -60 33 -196 42 -58 3
-113 10 -122 15 -24 13 -54 11 -70 -4 -13 -13 -19 -14 -98 -17 -90 -4 -141
-19 -180 -53 -27 -25 -50 -36 -87 -41 -28 -3 -56 -13 -63 -21 -7 -8 -19 -15
-26 -15 -8 0 -19 -9 -26 -20 -7 -11 -20 -20 -28 -20 -9 0 -21 -5 -27 -11 -8
-8 -17 -6 -35 11 -12 12 -35 24 -50 27 -18 4 -33 18 -50 50 -23 44 -98 103
-130 103 -9 0 -21 7 -28 15 -12 15 -94 55 -112 55 -5 0 -22 10 -38 21 -20 15
-36 20 -54 15 -13 -3 -28 -2 -31 4 -3 5 -21 10 -40 10 -19 0 -37 5 -40 10 -3
6 -16 10 -29 10 -12 0 -27 5 -33 11 -20 20 -275 10 -288 -11 -3 -5 -17 -2 -32
5 -23 12 -31 12 -62 -2 -20 -8 -54 -19 -76 -25 -21 -5 -44 -13 -50 -17 -5 -4
-21 -8 -34 -9 -25 -1 -61 -28 -61 -46 0 -6 -9 -17 -19 -23 -18 -11 -19 -21
-15 -94 2 -45 9 -90 14 -100 6 -10 10 -30 10 -45 0 -15 10 -38 22 -51 16 -17
22 -34 20 -57 -2 -20 3 -37 12 -45 9 -7 19 -36 22 -64 4 -27 14 -57 23 -66 23
-23 61 -90 61 -107 0 -8 11 -25 23 -38 13 -13 33 -41 44 -62 11 -21 33 -45 49
-54 16 -9 35 -29 42 -44 8 -15 21 -30 30 -33 10 -4 27 -17 38 -29 12 -13 38
-26 58 -29 20 -4 36 -11 36 -15 0 -29 193 -79 257 -67 17 3 23 0 23 -14 0 -22
-20 -42 -58 -58 -16 -7 -34 -23 -41 -37 -6 -13 -23 -29 -37 -35 -15 -5 -47
-23 -71 -39 -24 -17 -48 -30 -54 -30 -10 0 -23 -6 -86 -38 -28 -15 -60 -22
-97 -22 -30 0 -57 -4 -60 -9 -8 -13 -56 -20 -62 -9 -3 5 -50 8 -105 6 -67 -1
-103 2 -111 10 -7 7 -19 12 -28 12 -8 0 -30 14 -49 30 -18 17 -42 30 -52 30
-9 0 -36 18 -58 40 -22 22 -45 40 -51 40 -5 0 -10 7 -10 15 0 8 -9 20 -20 27
-11 7 -20 19 -20 26 0 16 -111 132 -127 132 -7 0 -20 16 -28 37 -8 20 -32 55
-53 79 -20 23 -50 59 -67 80 -16 21 -40 49 -52 61 -13 13 -23 28 -23 33 0 5
-18 21 -40 37 -22 15 -44 41 -50 57 -5 16 -19 35 -30 43 -11 8 -20 19 -20 26
0 6 -11 23 -25 37 -45 46 -95 105 -95 113 0 4 -11 12 -25 17 -14 5 -25 13 -24
17 4 27 -4 45 -26 55 -14 6 -25 17 -25 23 0 7 -24 34 -54 61 -29 27 -56 59
-60 71 -4 12 -22 31 -41 42 -19 11 -35 27 -35 35 0 9 -34 49 -75 90 -41 41
-75 77 -75 81 0 9 -111 115 -120 115 -5 0 -16 13 -25 30 -8 16 -29 37 -45 45
-17 9 -49 36 -73 60 -23 25 -46 45 -52 45 -6 0 -16 9 -23 20 -7 11 -18 20 -25
20 -7 0 -44 29 -82 65 -37 36 -72 65 -77 65 -5 0 -25 16 -43 36 -25 26 -41 35
-55 31 -14 -4 -26 3 -41 24 -12 18 -29 29 -43 29 -13 0 -29 7 -36 15 -7 8 -18
15 -25 15 -7 0 -25 12 -41 28 -58 54 -129 103 -149 101 -34 -4 -66 11 -75 36
-6 16 -23 28 -52 36 -24 7 -45 16 -48 19 -7 10 -110 60 -118 58 -4 0 -23 6
-43 15 -20 9 -58 21 -85 28 -27 7 -69 24 -94 39 -49 29 -130 56 -171 58 -15 1
-47 10 -71 21 -25 11 -72 22 -104 26 -33 4 -82 18 -111 31 -28 13 -59 21 -67
18 -9 -4 -22 -2 -29 4 -6 6 -41 12 -77 15 -36 3 -87 10 -115 16 -116 27 -459
46 -501 28 -15 -6 -29 -5 -45 6 -16 10 -31 12 -44 7z m145 -131 c8 0 69 1 135
2 71 1 132 -3 148 -10 16 -6 46 -8 68 -5 28 5 44 2 57 -9 11 -10 46 -17 97
-21 44 -3 98 -12 120 -20 22 -8 50 -15 61 -16 12 0 38 -7 57 -15 20 -8 43 -12
51 -9 8 3 25 -1 38 -10 15 -11 33 -14 56 -10 26 5 38 2 57 -16 13 -12 42 -24
67 -27 23 -3 49 -10 55 -15 7 -6 24 -8 37 -4 15 4 28 0 36 -9 7 -8 17 -15 22
-15 6 0 32 -11 60 -25 27 -14 60 -25 73 -25 12 0 29 -9 36 -21 8 -11 33 -24
59 -30 25 -6 52 -17 61 -25 9 -8 34 -18 55 -21 22 -3 45 -15 53 -26 7 -10 28
-26 45 -33 17 -8 49 -25 71 -39 22 -13 46 -24 54 -25 7 0 34 -17 60 -37 68
-56 103 -79 131 -88 14 -4 35 -18 47 -31 12 -13 29 -24 37 -24 9 0 25 -13 37
-29 12 -16 37 -37 57 -48 20 -10 59 -41 88 -70 28 -28 72 -61 98 -73 25 -12
46 -28 46 -36 0 -7 8 -19 18 -26 11 -7 38 -35 62 -63 23 -27 60 -60 82 -72 22
-12 51 -36 64 -55 13 -18 32 -44 41 -57 10 -13 27 -27 39 -31 11 -5 29 -25 38
-45 10 -20 23 -38 30 -41 7 -3 36 -34 64 -69 28 -34 69 -76 91 -91 22 -16 41
-36 41 -46 0 -23 76 -117 105 -130 14 -6 27 -18 30 -27 3 -9 21 -33 40 -54 19
-21 35 -44 35 -52 0 -7 18 -28 40 -45 22 -17 40 -40 40 -50 0 -10 23 -38 50
-61 29 -24 50 -51 50 -62 0 -10 23 -41 50 -67 28 -26 50 -52 50 -58 0 -6 8
-17 18 -24 11 -7 24 -23 31 -36 19 -35 101 -125 133 -144 15 -10 28 -23 28
-30 0 -19 72 -95 96 -102 11 -4 27 -18 35 -32 18 -34 82 -84 107 -84 12 0 46
-17 76 -38 53 -38 56 -38 150 -40 53 -1 105 -6 116 -12 11 -6 25 -8 30 -5 6 4
43 9 83 11 39 3 76 9 82 14 5 4 30 11 55 15 25 4 63 16 84 26 22 11 48 19 58
19 10 0 27 9 38 20 11 11 26 20 34 20 8 0 23 11 34 25 11 14 24 25 28 25 5 0
43 33 85 73 71 68 109 122 109 154 0 8 11 29 25 47 29 38 32 72 9 105 -15 20
-22 22 -61 16 -25 -3 -65 -15 -89 -25 -33 -15 -50 -17 -70 -10 -14 6 -40 10
-58 10 -35 0 -103 32 -173 83 -74 52 -163 144 -163 166 0 12 -9 26 -20 33 -11
7 -20 20 -20 29 0 9 -9 24 -20 34 -11 10 -20 26 -20 37 0 10 -4 26 -9 36 -22
40 -41 86 -41 99 0 7 -4 21 -9 31 -23 46 -41 95 -41 112 0 11 -8 36 -19 55
-25 47 -10 97 37 119 18 9 39 16 46 16 7 0 25 9 39 20 21 17 32 19 64 12 22
-5 49 -5 63 0 21 8 189 12 245 7 11 -1 29 -8 40 -15 11 -8 33 -14 50 -14 17 0
36 -5 43 -12 6 -6 27 -11 45 -10 23 1 41 -5 52 -18 10 -11 23 -20 30 -20 7 0
32 -13 56 -30 24 -16 52 -30 62 -30 23 0 67 -29 67 -44 0 -17 61 -71 97 -85
22 -9 34 -22 38 -42 7 -30 56 -79 80 -79 27 0 47 13 56 37 5 15 20 26 39 30
17 3 37 15 45 25 17 26 70 58 94 58 10 0 40 12 67 26 59 32 180 64 241 64 24
0 53 5 63 10 12 7 27 7 45 0 14 -5 52 -12 83 -15 98 -10 106 -11 149 -23 23
-7 45 -17 48 -22 3 -6 18 -10 33 -10 15 0 38 -10 52 -21 51 -41 100 -69 122
-69 16 0 28 -10 38 -32 8 -17 24 -36 35 -42 30 -16 34 -26 28 -64 -4 -23 -23
-52 -54 -86 -26 -28 -61 -69 -78 -91 -51 -67 -67 -84 -101 -108 -19 -12 -41
-35 -50 -52 -9 -16 -30 -37 -47 -45 -16 -8 -38 -23 -47 -32 -10 -10 -27 -18
-39 -18 -13 0 -33 -8 -47 -17 -13 -9 -32 -18 -42 -18 -10 -1 -26 -10 -37 -19
-11 -10 -25 -15 -31 -11 -6 4 -41 -3 -77 -15 -37 -12 -88 -22 -113 -22 -25 0
-63 0 -85 0 -22 0 -44 0 -50 0 -5 0 -35 6 -65 12 -30 7 -64 12 -74 12 -11 -1
-28 4 -38 9 -10 6 -28 7 -38 4 -38 -12 -48 -52 -49 -187 0 -99 -4 -135 -17
-160 -10 -18 -21 -46 -25 -63 -39 -152 -52 -188 -79 -229 -18 -26 -34 -64 -37
-86 -3 -23 -15 -48 -29 -61 -13 -12 -24 -28 -24 -36 0 -7 -11 -23 -25 -35 -14
-12 -25 -29 -25 -38 0 -8 -9 -23 -20 -33 -11 -9 -20 -26 -20 -37 0 -11 -6 -23
-14 -26 -16 -6 -46 -74 -46 -104 0 -14 -14 -27 -46 -41 -34 -17 -46 -29 -51
-50 -3 -16 -10 -29 -14 -29 -5 0 -15 -11 -21 -25 -6 -14 -17 -25 -24 -25 -8 0
-21 -11 -30 -25 -9 -14 -32 -33 -52 -42 -20 -9 -59 -40 -87 -68 -30 -31 -71
-59 -99 -70 -26 -10 -52 -25 -59 -34 -7 -9 -31 -25 -55 -36 -24 -10 -49 -26
-56 -36 -6 -9 -30 -25 -51 -34 -22 -10 -47 -21 -55 -26 -8 -5 -28 -15 -45 -22
-16 -8 -36 -21 -44 -30 -7 -10 -20 -17 -28 -17 -7 0 -16 -7 -19 -15 -5 -11
-11 -12 -26 -4 -14 8 -25 7 -43 -5 -14 -9 -30 -16 -37 -16 -7 0 -24 -9 -38
-20 -14 -11 -34 -20 -45 -20 -12 0 -25 -4 -30 -9 -6 -5 -25 -12 -43 -14 -18
-3 -44 -13 -58 -22 -13 -9 -29 -13 -35 -10 -5 4 -21 0 -34 -9 -13 -9 -33 -16
-43 -16 -10 0 -22 -4 -27 -9 -6 -5 -28 -11 -50 -13 -55 -6 -134 -27 -172 -45
-18 -9 -48 -17 -67 -19 -19 -2 -48 -10 -64 -18 -16 -8 -38 -15 -48 -14 -10 0
-58 -6 -106 -14 l-87 -15 -27 38 c-14 21 -50 61 -79 88 -29 27 -58 64 -64 82
-6 18 -30 48 -52 67 -23 20 -48 51 -55 69 -8 18 -23 37 -34 43 -11 6 -20 17
-20 24 0 8 -17 26 -37 42 -21 15 -53 42 -72 61 -19 18 -40 33 -47 33 -7 0 -22
13 -33 29 -12 16 -37 35 -55 41 -19 6 -36 19 -39 30 -3 10 -18 22 -33 26 -16
4 -35 13 -42 21 -7 7 -21 13 -31 13 -10 0 -32 7 -50 16 -18 9 -49 18 -69 19
-20 2 -56 8 -80 14 -24 6 -47 9 -51 6 -5 -2 -30 -6 -57 -7 -35 -1 -54 -8 -71
-24 -25 -25 -23 -45 10 -81 19 -21 26 -22 111 -16 87 5 93 4 130 -21 21 -14
47 -26 58 -26 17 0 36 -8 78 -32 8 -4 26 -14 40 -20 34 -16 156 -116 211 -173
37 -37 89 -102 89 -110 0 -5 18 -23 40 -42 22 -19 40 -41 40 -49 0 -8 42 -56
94 -107 62 -61 102 -110 118 -144 28 -60 28 -61 -44 -92 -27 -11 -49 -28 -53
-40 -4 -14 -15 -21 -32 -21 -13 0 -44 -14 -68 -31 -24 -17 -48 -28 -55 -24 -9
6 -93 -21 -142 -46 -15 -8 -72 -11 -188 -10 -14 0 -41 2 -60 5 -19 2 -41 1
-50 -4 -8 -5 -25 -3 -42 6 -33 17 -141 46 -188 50 -19 1 -38 3 -42 3 -3 1 -15
17 -27 36 -11 19 -27 35 -34 35 -8 0 -22 9 -32 20 -10 11 -23 20 -30 20 -6 0
-22 11 -35 25 -13 14 -29 25 -37 25 -7 0 -23 12 -36 26 -12 14 -34 39 -49 55
-16 16 -28 35 -28 42 0 7 -16 31 -35 53 -20 21 -47 64 -61 94 -14 30 -35 75
-46 98 -14 31 -19 55 -14 81 4 25 1 44 -8 56 -8 11 -11 28 -7 40 4 11 4 40 1
65 -4 38 -2 48 18 68 17 16 22 30 18 46 -3 13 1 31 9 42 8 10 15 26 15 35 0 9
6 19 14 22 23 9 25 45 4 73 -16 20 -26 24 -47 19 -14 -4 -34 -13 -43 -22 -15
-14 -20 -13 -50 8 -18 13 -39 31 -46 41 -7 10 -22 18 -32 18 -10 0 -48 18 -84
41 -38 24 -72 39 -81 35 -9 -3 -24 4 -37 19 -12 14 -30 25 -39 25 -10 0 -22 6
-26 13 -9 15 -69 47 -87 47 -6 0 -17 9 -24 20 -7 12 -23 20 -41 20 -16 0 -31
6 -34 14 -8 19 -103 81 -152 97 -22 8 -46 22 -53 31 -7 10 -19 18 -27 18 -7 0
-15 4 -17 9 -6 17 -112 82 -142 88 -17 4 -52 24 -77 45 -25 21 -50 38 -56 38
-6 0 -16 7 -23 15 -7 8 -21 15 -31 15 -19 0 -85 46 -153 106 -21 19 -46 34
-57 34 -10 0 -20 4 -23 9 -3 5 -25 19 -48 32 -38 20 -57 22 -158 22 -63 0
-128 -3 -145 -6 -63 -12 -140 -32 -151 -39 -24 -16 -105 -39 -115 -33 -5 4
-29 -6 -52 -21 -23 -16 -52 -27 -65 -25 -13 1 -34 -5 -48 -14 -13 -8 -42 -17
-65 -19 -22 -2 -46 -9 -52 -15 -6 -6 -18 -11 -27 -11 -8 0 -27 -7 -42 -14 -16
-8 -36 -15 -45 -15 -19 0 -74 -5 -162 -15 -30 -3 -64 -12 -76 -20 -25 -16
-164 -27 -208 -15 -18 4 -63 15 -102 24 -38 10 -74 21 -80 26 -5 5 -19 9 -31
9 -13 0 -25 4 -28 9 -3 4 -28 11 -56 13 -33 3 -59 13 -73 27 -15 13 -36 21
-59 21 -22 0 -49 10 -74 28 -55 39 -103 62 -132 62 -14 0 -54 16 -89 35 -35
19 -70 35 -78 35 -8 0 -29 9 -47 20 -18 11 -42 20 -54 20 -11 0 -25 5 -30 10
-6 6 -26 12 -45 14 -93 9 -145 40 -119 71 6 7 13 68 16 136 3 68 7 149 8 179
2 30 11 78 21 105 10 31 17 78 17 122 0 56 3 75 15 82 10 5 19 31 24 70 5 34
16 72 25 86 8 13 14 32 12 42 -1 10 8 38 20 62 13 24 24 59 25 77 2 18 10 41
18 51 25 28 39 59 39 87 0 14 8 33 18 43 28 28 62 92 62 117 0 12 15 40 33 62
18 21 41 58 51 81 10 23 29 52 42 64 13 12 24 28 24 35 0 7 6 19 13 26 8 7 25
34 39 59 14 25 42 62 62 81 20 19 45 56 56 81 14 32 27 47 40 47 21 0 50 35
50 61 0 11 13 22 34 29 19 6 38 21 44 35 7 14 18 25 27 25 8 0 22 11 31 25 9
14 23 25 30 25 8 0 17 7 20 15 4 8 11 15 18 15 7 0 30 18 51 40 21 22 47 40
57 40 9 0 25 8 35 18 20 21 79 52 98 52 7 0 20 9 30 20 10 11 28 20 40 20 11
0 26 5 33 12 6 6 22 13 34 15 12 2 29 10 38 18 9 8 26 15 37 15 11 0 26 6 32
14 6 8 24 16 39 20 15 3 61 13 102 21 41 9 91 19 110 22 19 3 41 10 48 16 8 6
43 10 79 9 48 -2 70 1 83 13 14 12 22 13 41 5 18 -8 32 -8 55 2 23 10 79 12
210 10 99 -2 186 -3 194 -3z m-2359 -2575 c8 -10 23 -14 43 -11 21 3 48 -4 86
-23 81 -41 139 -66 190 -81 25 -7 55 -19 68 -27 12 -8 33 -12 46 -10 18 4 34
-3 56 -24 35 -31 91 -58 123 -58 11 0 29 -8 39 -17 10 -9 26 -17 36 -18 9 -1
28 -7 42 -12 14 -6 45 -17 70 -24 25 -7 50 -16 55 -20 13 -9 156 -39 189 -39
14 0 28 -5 32 -11 4 -7 20 -9 43 -5 20 4 65 9 101 12 36 3 76 8 90 11 14 3 42
7 63 8 21 2 44 9 52 15 8 6 19 9 24 6 12 -8 142 27 214 56 26 10 52 16 57 13
5 -3 23 1 40 10 16 8 48 17 70 19 22 2 52 11 65 20 13 9 32 16 41 16 10 0 25
6 33 13 9 8 43 19 76 26 33 7 69 17 80 22 40 17 134 30 219 30 82 1 88 0 112
-26 17 -18 32 -25 45 -22 14 4 30 -6 56 -34 20 -21 40 -39 44 -39 7 0 75 -44
148 -98 24 -18 52 -32 63 -32 10 0 18 -4 18 -10 0 -14 55 -40 85 -40 19 0 31
-9 46 -35 12 -19 28 -35 36 -35 8 0 31 -13 51 -30 21 -16 52 -33 71 -36 18 -4
35 -13 38 -20 3 -7 20 -18 39 -24 18 -6 50 -29 71 -51 22 -24 46 -39 60 -39
26 0 64 -22 98 -56 27 -27 160 -94 195 -99 15 -2 43 -15 65 -29 21 -14 42 -26
46 -26 5 0 18 -9 29 -20 11 -11 28 -20 38 -20 9 -1 27 -9 39 -19 19 -16 20
-23 12 -64 -5 -26 -13 -55 -18 -65 -5 -9 -11 -31 -12 -47 -5 -43 11 -194 21
-200 4 -3 8 -20 8 -38 0 -38 31 -137 43 -137 4 0 11 -15 15 -34 3 -19 15 -42
25 -52 10 -9 19 -23 19 -30 0 -7 11 -22 25 -32 25 -20 20 -37 -7 -27 -8 3 -54
0 -104 -7 -49 -6 -132 -13 -184 -14 -52 -1 -108 -2 -124 -3 -15 0 -34 -5 -40
-10 -7 -6 -32 -10 -57 -10 -24 0 -53 0 -64 -1 -11 -1 -67 1 -125 3 -65 3 -110
1 -118 -5 -8 -7 -35 -8 -75 -3 -64 8 -70 8 -177 6 -36 -1 -103 0 -150 3 -47 3
-124 7 -172 10 -48 2 -93 8 -99 11 -6 4 -28 -1 -49 -10 -36 -16 -41 -16 -82
-1 -24 9 -65 18 -93 20 -27 2 -57 6 -65 9 -37 14 -90 17 -113 6 -21 -9 -30 -8
-55 11 -17 12 -35 19 -41 16 -6 -4 -37 -2 -70 5 -43 8 -64 8 -79 0 -16 -9 -30
-6 -69 14 -35 17 -64 24 -103 23 -81 -1 -128 7 -148 26 -10 9 -34 16 -53 16
-19 0 -52 9 -72 19 -20 10 -79 27 -129 36 -51 9 -101 23 -112 31 -11 8 -31 14
-44 14 -12 0 -40 9 -62 20 -22 11 -47 20 -57 20 -10 0 -35 9 -56 20 -20 11
-46 20 -58 20 -11 0 -32 9 -46 20 -14 11 -40 20 -57 20 -23 0 -41 9 -60 29
-28 29 -57 44 -107 55 -15 3 -46 22 -70 42 -23 19 -55 38 -71 41 -16 3 -33 14
-39 24 -5 11 -14 19 -20 19 -17 0 -220 213 -231 243 -5 15 -14 27 -19 27 -5 0
-16 15 -25 33 -9 17 -32 49 -50 70 -20 22 -34 48 -34 63 0 14 -9 37 -20 51
-11 14 -20 40 -20 58 0 18 -9 44 -21 59 -14 17 -19 35 -15 49 3 13 -2 63 -10
112 -18 104 -18 108 -8 240 8 127 23 158 55 119z m345 -1228 c6 -17 97 -76
116 -76 8 0 27 -13 43 -30 16 -17 44 -33 64 -36 20 -4 42 -15 49 -26 7 -10 21
-18 30 -18 10 0 26 -6 37 -13 33 -22 133 -59 143 -53 5 3 16 -1 23 -10 19 -23
69 -46 86 -40 8 3 26 -3 40 -14 14 -11 32 -20 39 -20 29 0 12 -26 -32 -49 -25
-14 -51 -35 -58 -48 -7 -13 -23 -30 -37 -38 -41 -23 -93 -48 -108 -51 -8 -1
-33 -12 -55 -22 -24 -12 -85 -25 -146 -32 -58 -7 -111 -14 -118 -16 -7 -2 -29
3 -49 11 -20 9 -66 15 -109 15 -43 0 -76 5 -80 11 -9 15 -148 79 -171 79 -11
0 -29 14 -41 30 -13 17 -29 30 -37 30 -8 0 -15 6 -15 14 0 7 -7 20 -16 27 -9
8 -28 31 -41 53 -21 32 -23 43 -14 62 6 13 17 24 26 24 8 0 32 9 52 20 21 11
47 20 58 20 33 0 114 28 145 50 15 11 33 20 39 20 6 0 16 10 22 22 6 12 27 37
45 56 19 19 34 41 34 49 0 17 29 17 36 -1z"/>
<path d="M3370 5322 c-32 -9 -104 -60 -121 -87 -7 -11 -14 -38 -15 -60 -1 -22
-8 -58 -14 -80 -14 -47 -14 -105 0 -119 6 -6 10 -24 10 -40 0 -48 31 -88 93
-120 l57 -28 50 18 c44 16 54 25 76 67 13 27 24 57 24 67 0 10 5 22 11 25 6 4
9 19 8 33 -2 15 0 33 4 39 14 22 -3 156 -26 201 -31 63 -98 99 -157 84z"/>
</g>
</svg>
